<?xml version="1.0" encoding="utf-8"?>
<!-- Generator: Adobe Illustrator 20.0.0, SVG Export Plug-In . SVG Version: 6.00 Build 0)  -->
<svg version="1.1" id="Layer_1" xmlns="http://www.w3.org/2000/svg" xmlns:xlink="http://www.w3.org/1999/xlink" x="0px" y="0px"
	 viewBox="0 0 449.1 100.6" style="enable-background:new 0 0 449.1 100.6;" xml:space="preserve" width="450" height="100">
<style type="text/css">
	.st0{fill:#FFFFFF;}
</style>
<g>
	<path class="st0" d="M0,69.4c0,16.4,13.4,31.2,29.9,31.2c16.4,0,29.9-14.7,29.9-31.2C59.8,46.9,33,31.8,29.9,0
		C26.8,31.8,0,46.9,0,69.4z"/>
	<path class="st0" d="M97.7,49.3c5.7,0,11.9,2.9,18.6,6.6l7.1-11.5c-8.4-4.7-17.3-9-27.6-9c-15.2,0-26.4,10.5-26.4,32.5
		c0,22.2,11.3,32.5,26.4,32.5c10.3,0,19.1-4.3,27.6-9l-7.1-11.3c-6.6,3.7-12.8,6.6-18.6,6.6c-8,0-12.5-7.3-12.5-18.7
		C85.2,56.6,89.7,49.3,97.7,49.3z"/>
	<rect x="128.4" y="33.9" class="st0" width="14.8" height="65.6"/>
	<rect x="150.6" y="52.3" class="st0" width="14.8" height="47.2"/>
	<polygon class="st0" points="150.3,34.2 150.3,46.3 165.8,46.3 165.8,34.2 150.4,34.2 	"/>
	<path class="st0" d="M194.7,63.9c4.3,0,9.5,2.5,12.8,4l5.8-11c-4.5-2-12.8-5.6-21.1-5.6c-11.4,0-21.8,7.5-21.8,24.6
		c0,17.1,10.5,24.7,21.9,24.7c8.2,0,16.6-3.6,21-5.6l-5.8-10.9c-3.4,1.5-8.6,3.9-12.8,3.9c-5.9,0-9.2-4.9-9.2-12.1
		C185.5,68.7,188.9,63.9,194.7,63.9z"/>
	<polygon class="st0" points="262.5,52.3 245.8,52.3 231.9,70 231.9,33.9 217.1,33.9 217.1,99.4 231.9,99.4 231.9,88.1 237.7,81.3 
		249.8,99.5 265.4,99.5 246.7,70.9 	"/>
	<path class="st0" d="M325,56.3c0-13.4-8.5-19.7-25.9-19.7h-29v63h15.4V75.9h8.8l14.3,23.7h16.5l-15.4-24.7
		C319.9,72.7,325,66.6,325,56.3z M298,63.9h-12.6V48.5h12.8c6.4,0,11.3,1.6,11.2,7.8C309.4,62.4,304.6,63.9,298,63.9z"/>
	<path class="st0" d="M353.1,51.2c-7,0-15,1.3-24.5,4.4l4.5,10.1c7.6-2.2,12.6-3.3,17.2-3.3c5.9,0,7.9,1.7,7.9,6.5v3
		c-3.1-0.7-9.8-2.2-15.2-2.2c-10.2,0-17.6,5.5-17.6,15.2c0,9.3,6.9,15.6,16.6,15.6c7.2,0,12.6-3,16.2-6.2v5.1H373V69.6
		C373,56.2,367,51.2,353.1,51.2z M358.3,84.7c-3.8,3.1-7.8,4.5-11.5,4.5c-3.8,0-6.4-1.7-6.4-5.6c0-3.8,2.6-6,7.6-6
		c3.3,0,7.8,0.9,10.3,1.4V84.7z"/>
	<rect x="379.6" y="34.2" class="st0" width="15.5" height="12.1"/>
	<rect x="379.9" y="52.3" class="st0" width="14.8" height="47.2"/>
	<path class="st0" d="M434.7,51.3c-7.4,0-13.6,3.4-17.9,6.3v-5.3h-14.9v47.2h14.8V68.2c2.7-2.6,7.7-5.5,12-5.5c4.5,0,5.6,3,5.6,7
		v29.8h14.8V66.3C449.1,57.1,445,51.3,434.7,51.3z"/>
</g>
</svg>
